<svg width="608" height="70" viewBox="0 0 608 70" fill="none" xmlns="http://www.w3.org/2000/svg">
<rect x="414" y="1" width="194" height="68" rx="34" fill="#00A6FF"/>
<rect x="0.5" y="0.5" width="469" height="69" rx="34.5" fill="#00486C" stroke="white"/>
<path d="M46.5341 33C46.3935 32.5696 46.2081 32.1839 45.978 31.843C45.7521 31.4979 45.4815 31.2038 45.1662 30.9609C44.8551 30.718 44.5014 30.5327 44.1051 30.4048C43.7088 30.277 43.2741 30.2131 42.8011 30.2131C42.0256 30.2131 41.3203 30.4134 40.6854 30.8139C40.0504 31.2145 39.5455 31.8047 39.1705 32.5845C38.7955 33.3643 38.608 34.321 38.608 35.4545C38.608 36.5881 38.7976 37.5447 39.1768 38.3246C39.5561 39.1044 40.0696 39.6946 40.7173 40.0952C41.3651 40.4957 42.0938 40.696 42.9034 40.696C43.6534 40.696 44.3139 40.5362 44.8849 40.2166C45.4602 39.8928 45.9077 39.4368 46.2273 38.8487C46.5511 38.2564 46.7131 37.5597 46.7131 36.7585L47.1989 36.8608H43.2614V35.4545H48.2472V36.8608C48.2472 37.9389 48.017 38.8764 47.5568 39.6733C47.1009 40.4702 46.4702 41.0881 45.6648 41.527C44.8636 41.9616 43.9432 42.179 42.9034 42.179C41.7443 42.179 40.7259 41.9062 39.848 41.3608C38.9744 40.8153 38.2926 40.0398 37.8026 39.0341C37.3168 38.0284 37.0739 36.8352 37.0739 35.4545C37.0739 34.419 37.2124 33.4879 37.4893 32.6612C37.7706 31.8303 38.1669 31.1229 38.6783 30.5391C39.1896 29.9553 39.7947 29.5078 40.4936 29.1967C41.1925 28.8857 41.9616 28.7301 42.8011 28.7301C43.4915 28.7301 44.1349 28.8345 44.7315 29.0433C45.3324 29.2479 45.8672 29.5398 46.3359 29.919C46.8089 30.294 47.2031 30.7436 47.5185 31.2678C47.8338 31.7876 48.0511 32.3651 48.1705 33H46.5341ZM54.8741 42.2045C53.9281 42.2045 53.112 41.9957 52.426 41.5781C51.7441 41.1562 51.2179 40.5682 50.8471 39.8139C50.4806 39.0554 50.2974 38.1733 50.2974 37.1676C50.2974 36.1619 50.4806 35.2756 50.8471 34.5085C51.2179 33.7372 51.7335 33.1364 52.394 32.706C53.0588 32.2713 53.8343 32.054 54.7207 32.054C55.2321 32.054 55.737 32.1392 56.2356 32.3097C56.7342 32.4801 57.188 32.7571 57.5971 33.1406C58.0062 33.5199 58.3322 34.0227 58.5751 34.6491C58.818 35.2756 58.9395 36.0469 58.9395 36.9631V37.6023H51.3713V36.2983H57.4054C57.4054 35.7443 57.2946 35.25 57.073 34.8153C56.8556 34.3807 56.5446 34.0376 56.1397 33.7862C55.7392 33.5348 55.2662 33.4091 54.7207 33.4091C54.1199 33.4091 53.6 33.5582 53.161 33.8565C52.7264 34.1506 52.3919 34.5341 52.1575 35.0071C51.9231 35.4801 51.8059 35.9872 51.8059 36.5284V37.3977C51.8059 38.1392 51.9338 38.7678 52.1895 39.2834C52.4494 39.7947 52.8095 40.1847 53.2697 40.4531C53.7299 40.7173 54.2647 40.8494 54.8741 40.8494C55.2704 40.8494 55.6284 40.794 55.948 40.6832C56.2718 40.5682 56.551 40.3977 56.7853 40.1719C57.0197 39.9418 57.2008 39.6562 57.3287 39.3153L58.786 39.7244C58.6326 40.2188 58.3748 40.6534 58.0126 41.0284C57.6504 41.3991 57.2029 41.6889 56.6703 41.8977C56.1376 42.1023 55.5389 42.2045 54.8741 42.2045ZM65.5041 32.1818V33.4602H60.416V32.1818H65.5041ZM61.899 29.8295H63.4075V39.1875C63.4075 39.6136 63.4693 39.9332 63.5929 40.1463C63.7207 40.3551 63.8826 40.4957 64.0787 40.5682C64.2789 40.6364 64.4899 40.6705 64.7115 40.6705C64.8777 40.6705 65.014 40.6619 65.1206 40.6449C65.2271 40.6236 65.3123 40.6065 65.3762 40.5938L65.6831 41.9489C65.5808 41.9872 65.438 42.0256 65.2548 42.0639C65.0716 42.1065 64.8393 42.1278 64.5581 42.1278C64.1319 42.1278 63.7143 42.0362 63.3052 41.853C62.9004 41.6697 62.5637 41.3906 62.2953 41.0156C62.0311 40.6406 61.899 40.1676 61.899 39.5966V29.8295ZM75.725 42.2301C75.1028 42.2301 74.5382 42.1129 74.0311 41.8786C73.524 41.6399 73.1213 41.2969 72.823 40.8494C72.5247 40.3977 72.3755 39.8523 72.3755 39.2131C72.3755 38.6506 72.4863 38.1946 72.7079 37.8452C72.9295 37.4915 73.2257 37.2145 73.5964 37.0142C73.9672 36.8139 74.3762 36.6648 74.8237 36.5668C75.2754 36.4645 75.7292 36.3835 76.1852 36.3239C76.7818 36.2472 77.2654 36.1896 77.6362 36.1513C78.0112 36.1087 78.2839 36.0384 78.4544 35.9403C78.6291 35.8423 78.7164 35.6719 78.7164 35.429V35.3778C78.7164 34.7472 78.5439 34.2571 78.1987 33.9077C77.8578 33.5582 77.34 33.3835 76.6454 33.3835C75.9252 33.3835 75.3606 33.5412 74.9515 33.8565C74.5424 34.1719 74.2548 34.5085 74.0886 34.8665L72.6568 34.3551C72.9125 33.7585 73.2534 33.294 73.6795 32.9616C74.1099 32.625 74.5787 32.3906 75.0858 32.2585C75.5971 32.1222 76.1 32.054 76.5943 32.054C76.9096 32.054 77.2718 32.0923 77.6809 32.169C78.0943 32.2415 78.4927 32.3928 78.8762 32.6229C79.264 32.853 79.5858 33.2003 79.8414 33.6648C80.0971 34.1293 80.225 34.7514 80.225 35.5312V42H78.7164V40.6705H78.6397C78.5375 40.8835 78.367 41.1115 78.1284 41.3544C77.8897 41.5973 77.5723 41.804 77.176 41.9744C76.7797 42.1449 76.296 42.2301 75.725 42.2301ZM75.9551 40.875C76.5517 40.875 77.0545 40.7578 77.4636 40.5234C77.877 40.2891 78.188 39.9865 78.3968 39.6158C78.6099 39.245 78.7164 38.8551 78.7164 38.446V37.0653C78.6525 37.142 78.5119 37.2124 78.2946 37.2763C78.0815 37.3359 77.8343 37.3892 77.5531 37.4361C77.2761 37.4787 77.0055 37.517 76.7413 37.5511C76.4814 37.581 76.2704 37.6065 76.1085 37.6278C75.7164 37.679 75.35 37.7621 75.0091 37.8771C74.6724 37.9879 74.3997 38.1562 74.1909 38.3821C73.9863 38.6037 73.8841 38.9062 73.8841 39.2898C73.8841 39.8139 74.0779 40.2102 74.4657 40.4787C74.8578 40.7429 75.3542 40.875 75.9551 40.875ZM88.2454 42V28.9091H96.0948V30.3153H89.8306V34.7386H95.5067V36.1449H89.8306V42H88.2454ZM104.178 37.9858V32.1818H105.686V42H104.178V40.3381H104.075C103.845 40.8366 103.487 41.2607 103.001 41.6101C102.516 41.9553 101.902 42.1278 101.161 42.1278C100.547 42.1278 100.001 41.9936 99.5241 41.7251C99.0469 41.4524 98.6719 41.0433 98.3991 40.4979C98.1264 39.9482 97.9901 39.2557 97.9901 38.4205V32.1818H99.4986V38.3182C99.4986 39.0341 99.6989 39.6051 100.099 40.0312C100.504 40.4574 101.02 40.6705 101.646 40.6705C102.021 40.6705 102.403 40.5746 102.79 40.3828C103.183 40.1911 103.511 39.897 103.775 39.5007C104.043 39.1044 104.178 38.5994 104.178 37.9858ZM109.958 28.9091V42H108.449V28.9091H109.958ZM114.229 28.9091V42H112.721V28.9091H114.229ZM122.259 42V28.9091H126.836C127.748 28.9091 128.5 29.0668 129.092 29.3821C129.684 29.6932 130.126 30.1129 130.415 30.6413C130.705 31.1655 130.85 31.7472 130.85 32.3864C130.85 32.9489 130.75 33.4134 130.55 33.7798C130.354 34.1463 130.094 34.4361 129.77 34.6491C129.45 34.8622 129.103 35.0199 128.728 35.1222V35.25C129.128 35.2756 129.531 35.4162 129.936 35.6719C130.341 35.9276 130.68 36.294 130.952 36.7713C131.225 37.2486 131.361 37.8324 131.361 38.5227C131.361 39.179 131.212 39.7692 130.914 40.2933C130.616 40.8175 130.145 41.233 129.501 41.5398C128.858 41.8466 128.02 42 126.989 42H122.259ZM123.844 40.5938H126.989C128.025 40.5938 128.76 40.3935 129.194 39.9929C129.633 39.5881 129.853 39.098 129.853 38.5227C129.853 38.0795 129.74 37.6705 129.514 37.2955C129.288 36.9162 128.966 36.6136 128.549 36.3878C128.131 36.1577 127.637 36.0426 127.066 36.0426H123.844V40.5938ZM123.844 34.6619H126.785C127.262 34.6619 127.692 34.5682 128.076 34.3807C128.464 34.1932 128.77 33.929 128.996 33.5881C129.226 33.2472 129.341 32.8466 129.341 32.3864C129.341 31.8111 129.141 31.3232 128.741 30.9226C128.34 30.5178 127.705 30.3153 126.836 30.3153H123.844V34.6619ZM137.75 42.2045C136.864 42.2045 136.086 41.9936 135.417 41.5717C134.752 41.1499 134.232 40.5597 133.857 39.8011C133.487 39.0426 133.301 38.1562 133.301 37.142C133.301 36.1193 133.487 35.2266 133.857 34.4638C134.232 33.701 134.752 33.1087 135.417 32.6868C136.086 32.2649 136.864 32.054 137.75 32.054C138.637 32.054 139.412 32.2649 140.077 32.6868C140.746 33.1087 141.266 33.701 141.637 34.4638C142.012 35.2266 142.199 36.1193 142.199 37.142C142.199 38.1562 142.012 39.0426 141.637 39.8011C141.266 40.5597 140.746 41.1499 140.077 41.5717C139.412 41.9936 138.637 42.2045 137.75 42.2045ZM137.75 40.8494C138.423 40.8494 138.977 40.6768 139.412 40.3317C139.847 39.9865 140.169 39.5327 140.377 38.9702C140.586 38.4077 140.691 37.7983 140.691 37.142C140.691 36.4858 140.586 35.8743 140.377 35.3075C140.169 34.7408 139.847 34.2827 139.412 33.9332C138.977 33.5838 138.423 33.4091 137.75 33.4091C137.077 33.4091 136.523 33.5838 136.088 33.9332C135.654 34.2827 135.332 34.7408 135.123 35.3075C134.914 35.8743 134.81 36.4858 134.81 37.142C134.81 37.7983 134.914 38.4077 135.123 38.9702C135.332 39.5327 135.654 39.9865 136.088 40.3317C136.523 40.6768 137.077 40.8494 137.75 40.8494ZM148.209 42.2045C147.391 42.2045 146.669 41.9979 146.042 41.5845C145.416 41.1669 144.926 40.5788 144.572 39.8203C144.218 39.0575 144.042 38.1562 144.042 37.1165C144.042 36.0852 144.218 35.1903 144.572 34.4318C144.926 33.6733 145.418 33.0874 146.049 32.674C146.679 32.2607 147.408 32.054 148.235 32.054C148.874 32.054 149.379 32.1605 149.75 32.3736C150.125 32.5824 150.41 32.821 150.606 33.0895C150.806 33.3537 150.962 33.571 151.073 33.7415H151.201V28.9091H152.709V42H151.252V40.4915H151.073C150.962 40.6705 150.804 40.8963 150.6 41.169C150.395 41.4375 150.103 41.6783 149.724 41.8913C149.345 42.1001 148.84 42.2045 148.209 42.2045ZM148.414 40.8494C149.019 40.8494 149.53 40.6918 149.948 40.3764C150.365 40.0568 150.683 39.6158 150.9 39.0533C151.118 38.4865 151.226 37.8324 151.226 37.0909C151.226 36.358 151.12 35.7166 150.907 35.1669C150.694 34.6129 150.378 34.1825 149.961 33.8757C149.543 33.5646 149.027 33.4091 148.414 33.4091C147.775 33.4091 147.242 33.5732 146.816 33.9013C146.394 34.2251 146.076 34.6662 145.863 35.2244C145.654 35.7784 145.55 36.4006 145.55 37.0909C145.55 37.7898 145.657 38.4247 145.87 38.9957C146.087 39.5625 146.407 40.0142 146.828 40.3509C147.255 40.6832 147.783 40.8494 148.414 40.8494ZM156.653 45.6818C156.397 45.6818 156.169 45.6605 155.969 45.6179C155.769 45.5795 155.63 45.5412 155.554 45.5028L155.937 44.1733C156.304 44.267 156.627 44.3011 156.909 44.2756C157.19 44.25 157.439 44.1243 157.657 43.8984C157.878 43.6768 158.081 43.3168 158.264 42.8182L158.545 42.0511L154.914 32.1818H156.551L159.261 40.0057H159.363L162.074 32.1818H163.71L159.542 43.4318C159.355 43.9389 159.123 44.3587 158.846 44.6911C158.569 45.0277 158.247 45.277 157.88 45.4389C157.518 45.6009 157.109 45.6818 156.653 45.6818ZM181.502 33H179.917C179.823 32.544 179.659 32.1435 179.425 31.7983C179.195 31.4531 178.913 31.1634 178.581 30.929C178.253 30.6903 177.888 30.5114 177.488 30.392C177.087 30.2727 176.67 30.2131 176.235 30.2131C175.442 30.2131 174.724 30.4134 174.081 30.8139C173.442 31.2145 172.933 31.8047 172.553 32.5845C172.178 33.3643 171.991 34.321 171.991 35.4545C171.991 36.5881 172.178 37.5447 172.553 38.3246C172.933 39.1044 173.442 39.6946 174.081 40.0952C174.724 40.4957 175.442 40.696 176.235 40.696C176.67 40.696 177.087 40.6364 177.488 40.517C177.888 40.3977 178.253 40.2209 178.581 39.9865C178.913 39.7479 179.195 39.456 179.425 39.1108C179.659 38.7614 179.823 38.3608 179.917 37.9091H181.502C181.383 38.5781 181.165 39.1768 180.85 39.7053C180.535 40.2337 180.143 40.6832 179.674 41.054C179.205 41.4205 178.679 41.6996 178.095 41.8913C177.516 42.0831 176.896 42.179 176.235 42.179C175.119 42.179 174.126 41.9062 173.256 41.3608C172.387 40.8153 171.703 40.0398 171.205 39.0341C170.706 38.0284 170.457 36.8352 170.457 35.4545C170.457 34.0739 170.706 32.8807 171.205 31.875C171.703 30.8693 172.387 30.0938 173.256 29.5483C174.126 29.0028 175.119 28.7301 176.235 28.7301C176.896 28.7301 177.516 28.826 178.095 29.0178C178.679 29.2095 179.205 29.4908 179.674 29.8615C180.143 30.228 180.535 30.6754 180.85 31.2038C181.165 31.728 181.383 32.3267 181.502 33ZM185.368 36.0938V42H183.859V28.9091H185.368V33.7159H185.496C185.726 33.2088 186.071 32.8061 186.531 32.5078C186.996 32.2053 187.613 32.054 188.385 32.054C189.054 32.054 189.64 32.1882 190.143 32.4567C190.645 32.7209 191.035 33.1278 191.312 33.6776C191.594 34.223 191.734 34.9176 191.734 35.7614V42H190.226V35.8636C190.226 35.0838 190.023 34.4808 189.618 34.0547C189.218 33.6243 188.662 33.4091 187.95 33.4091C187.456 33.4091 187.013 33.5135 186.621 33.7223C186.233 33.9311 185.926 34.2358 185.7 34.6364C185.479 35.0369 185.368 35.5227 185.368 36.0938ZM198.61 42.2045C197.664 42.2045 196.848 41.9957 196.162 41.5781C195.48 41.1562 194.954 40.5682 194.583 39.8139C194.217 39.0554 194.034 38.1733 194.034 37.1676C194.034 36.1619 194.217 35.2756 194.583 34.5085C194.954 33.7372 195.47 33.1364 196.13 32.706C196.795 32.2713 197.571 32.054 198.457 32.054C198.968 32.054 199.473 32.1392 199.972 32.3097C200.471 32.4801 200.924 32.7571 201.333 33.1406C201.743 33.5199 202.069 34.0227 202.311 34.6491C202.554 35.2756 202.676 36.0469 202.676 36.9631V37.6023H195.108V36.2983H201.142C201.142 35.7443 201.031 35.25 200.809 34.8153C200.592 34.3807 200.281 34.0376 199.876 33.7862C199.475 33.5348 199.002 33.4091 198.457 33.4091C197.856 33.4091 197.336 33.5582 196.897 33.8565C196.463 34.1506 196.128 34.5341 195.894 35.0071C195.659 35.4801 195.542 35.9872 195.542 36.5284V37.3977C195.542 38.1392 195.67 38.7678 195.926 39.2834C196.186 39.7947 196.546 40.1847 197.006 40.4531C197.466 40.7173 198.001 40.8494 198.61 40.8494C199.007 40.8494 199.365 40.794 199.684 40.6832C200.008 40.5682 200.287 40.3977 200.522 40.1719C200.756 39.9418 200.937 39.6562 201.065 39.3153L202.522 39.7244C202.369 40.2188 202.111 40.6534 201.749 41.0284C201.387 41.3991 200.939 41.6889 200.407 41.8977C199.874 42.1023 199.275 42.2045 198.61 42.2045ZM208.959 42.2045C208.039 42.2045 207.246 41.9872 206.581 41.5526C205.917 41.1179 205.405 40.5192 205.047 39.7564C204.689 38.9936 204.51 38.1222 204.51 37.142C204.51 36.1449 204.694 35.2649 205.06 34.5021C205.431 33.7351 205.946 33.1364 206.607 32.706C207.272 32.2713 208.047 32.054 208.934 32.054C209.624 32.054 210.246 32.1818 210.8 32.4375C211.354 32.6932 211.808 33.0511 212.162 33.5114C212.515 33.9716 212.735 34.5085 212.82 35.1222H211.311C211.196 34.6747 210.941 34.2784 210.544 33.9332C210.152 33.5838 209.624 33.4091 208.959 33.4091C208.371 33.4091 207.855 33.5625 207.412 33.8693C206.973 34.1719 206.63 34.6001 206.383 35.1541C206.14 35.7038 206.019 36.3494 206.019 37.0909C206.019 37.8494 206.138 38.5099 206.377 39.0724C206.62 39.6349 206.961 40.0717 207.4 40.3828C207.843 40.6939 208.363 40.8494 208.959 40.8494C209.351 40.8494 209.707 40.7812 210.027 40.6449C210.346 40.5085 210.617 40.3125 210.838 40.0568C211.06 39.8011 211.218 39.4943 211.311 39.1364H212.82C212.735 39.7159 212.524 40.2379 212.187 40.7024C211.855 41.1626 211.414 41.5291 210.864 41.8018C210.319 42.0703 209.684 42.2045 208.959 42.2045ZM216.431 38.4205L216.406 36.554H216.713L221.008 32.1818H222.875L218.298 36.8097H218.17L216.431 38.4205ZM215.025 42V28.9091H216.534V42H215.025ZM221.264 42L217.429 37.142L218.502 36.0938L223.181 42H221.264ZM231.004 37.9858V32.1818H232.512V42H231.004V40.3381H230.901C230.671 40.8366 230.313 41.2607 229.828 41.6101C229.342 41.9553 228.728 42.1278 227.987 42.1278C227.373 42.1278 226.828 41.9936 226.35 41.7251C225.873 41.4524 225.498 41.0433 225.225 40.4979C224.953 39.9482 224.816 39.2557 224.816 38.4205V32.1818H226.325V38.3182C226.325 39.0341 226.525 39.6051 226.926 40.0312C227.33 40.4574 227.846 40.6705 228.472 40.6705C228.847 40.6705 229.229 40.5746 229.617 40.3828C230.009 40.1911 230.337 39.897 230.601 39.5007C230.869 39.1044 231.004 38.5994 231.004 37.9858ZM235.275 45.6818V32.1818H236.733V33.7415H236.912C237.022 33.571 237.176 33.3537 237.372 33.0895C237.572 32.821 237.858 32.5824 238.228 32.3736C238.603 32.1605 239.11 32.054 239.75 32.054C240.576 32.054 241.305 32.2607 241.936 32.674C242.566 33.0874 243.059 33.6733 243.412 34.4318C243.766 35.1903 243.943 36.0852 243.943 37.1165C243.943 38.1562 243.766 39.0575 243.412 39.8203C243.059 40.5788 242.569 41.1669 241.942 41.5845C241.316 41.9979 240.593 42.2045 239.775 42.2045C239.145 42.2045 238.64 42.1001 238.26 41.8913C237.881 41.6783 237.589 41.4375 237.385 41.169C237.18 40.8963 237.022 40.6705 236.912 40.4915H236.784V45.6818H235.275ZM236.758 37.0909C236.758 37.8324 236.867 38.4865 237.084 39.0533C237.301 39.6158 237.619 40.0568 238.037 40.3764C238.454 40.6918 238.966 40.8494 239.571 40.8494C240.201 40.8494 240.728 40.6832 241.15 40.3509C241.576 40.0142 241.895 39.5625 242.108 38.9957C242.326 38.4247 242.434 37.7898 242.434 37.0909C242.434 36.4006 242.328 35.7784 242.115 35.2244C241.906 34.6662 241.588 34.2251 241.162 33.9013C240.74 33.5732 240.21 33.4091 239.571 33.4091C238.957 33.4091 238.441 33.5646 238.024 33.8757C237.606 34.1825 237.291 34.6129 237.078 35.1669C236.865 35.7166 236.758 36.358 236.758 37.0909ZM261.377 28.9091V42H259.268L253.099 33.0831H252.991V42H250.619V28.9091H252.741L258.903 37.8324H259.018V28.9091H261.377ZM268.142 42.1918C267.183 42.1918 266.352 41.9808 265.649 41.5589C264.945 41.1371 264.4 40.5469 264.012 39.7884C263.629 39.0298 263.437 38.1435 263.437 37.1293C263.437 36.1151 263.629 35.2266 264.012 34.4638C264.4 33.701 264.945 33.1087 265.649 32.6868C266.352 32.2649 267.183 32.054 268.142 32.054C269.1 32.054 269.931 32.2649 270.634 32.6868C271.338 33.1087 271.881 33.701 272.264 34.4638C272.652 35.2266 272.846 36.1151 272.846 37.1293C272.846 38.1435 272.652 39.0298 272.264 39.7884C271.881 40.5469 271.338 41.1371 270.634 41.5589C269.931 41.9808 269.1 42.1918 268.142 42.1918ZM268.154 40.3381C268.674 40.3381 269.109 40.1953 269.458 39.9098C269.808 39.62 270.068 39.2322 270.238 38.7464C270.413 38.2607 270.5 37.7195 270.5 37.1229C270.5 36.522 270.413 35.9787 270.238 35.4929C270.068 35.0028 269.808 34.6129 269.458 34.3232C269.109 34.0334 268.674 33.8885 268.154 33.8885C267.622 33.8885 267.178 34.0334 266.825 34.3232C266.475 34.6129 266.213 35.0028 266.039 35.4929C265.868 35.9787 265.783 36.522 265.783 37.1229C265.783 37.7195 265.868 38.2607 266.039 38.7464C266.213 39.2322 266.475 39.62 266.825 39.9098C267.178 40.1953 267.622 40.3381 268.154 40.3381ZM276.555 42L273.781 32.1818H276.14L277.865 39.0852H277.955L279.719 32.1818H282.052L283.816 39.0469H283.912L285.613 32.1818H287.978L285.197 42H282.787L280.946 35.3651H280.812L278.971 42H276.555ZM297.139 42.2301C296.517 42.2301 295.952 42.1129 295.445 41.8786C294.938 41.6399 294.535 41.2969 294.237 40.8494C293.939 40.3977 293.79 39.8523 293.79 39.2131C293.79 38.6506 293.9 38.1946 294.122 37.8452C294.344 37.4915 294.64 37.2145 295.01 37.0142C295.381 36.8139 295.79 36.6648 296.238 36.5668C296.689 36.4645 297.143 36.3835 297.599 36.3239C298.196 36.2472 298.68 36.1896 299.05 36.1513C299.425 36.1087 299.698 36.0384 299.868 35.9403C300.043 35.8423 300.131 35.6719 300.131 35.429V35.3778C300.131 34.7472 299.958 34.2571 299.613 33.9077C299.272 33.5582 298.754 33.3835 298.059 33.3835C297.339 33.3835 296.775 33.5412 296.366 33.8565C295.956 34.1719 295.669 34.5085 295.503 34.8665L294.071 34.3551C294.327 33.7585 294.667 33.294 295.094 32.9616C295.524 32.625 295.993 32.3906 296.5 32.2585C297.011 32.1222 297.514 32.054 298.008 32.054C298.324 32.054 298.686 32.0923 299.095 32.169C299.508 32.2415 299.907 32.3928 300.29 32.6229C300.678 32.853 301 33.2003 301.256 33.6648C301.511 34.1293 301.639 34.7514 301.639 35.5312V42H300.131V40.6705H300.054C299.952 40.8835 299.781 41.1115 299.542 41.3544C299.304 41.5973 298.986 41.804 298.59 41.9744C298.194 42.1449 297.71 42.2301 297.139 42.2301ZM297.369 40.875C297.966 40.875 298.469 40.7578 298.878 40.5234C299.291 40.2891 299.602 39.9865 299.811 39.6158C300.024 39.245 300.131 38.8551 300.131 38.446V37.0653C300.067 37.142 299.926 37.2124 299.709 37.2763C299.496 37.3359 299.248 37.3892 298.967 37.4361C298.69 37.4787 298.42 37.517 298.155 37.5511C297.895 37.581 297.684 37.6065 297.523 37.6278C297.131 37.679 296.764 37.7621 296.423 37.8771C296.086 37.9879 295.814 38.1562 295.605 38.3821C295.4 38.6037 295.298 38.9062 295.298 39.2898C295.298 39.8139 295.492 40.2102 295.88 40.4787C296.272 40.7429 296.768 40.875 297.369 40.875ZM308.662 32.1818V33.4602H303.574V32.1818H308.662ZM305.057 29.8295H306.566V39.1875C306.566 39.6136 306.627 39.9332 306.751 40.1463C306.879 40.3551 307.041 40.4957 307.237 40.5682C307.437 40.6364 307.648 40.6705 307.87 40.6705C308.036 40.6705 308.172 40.6619 308.279 40.6449C308.385 40.6236 308.471 40.6065 308.534 40.5938L308.841 41.9489C308.739 41.9872 308.596 42.0256 308.413 42.0639C308.23 42.1065 307.998 42.1278 307.716 42.1278C307.29 42.1278 306.873 42.0362 306.463 41.853C306.059 41.6697 305.722 41.3906 305.453 41.0156C305.189 40.6406 305.057 40.1676 305.057 39.5966V29.8295Z" fill="white"/>
<mask id="mask0_1_128" style="mask-type:alpha" maskUnits="userSpaceOnUse" x="310" y="26" width="18" height="18">
<rect x="310" y="26" width="18" height="18" fill="#D9D9D9"/>
</mask>
<g mask="url(#mask0_1_128)">
<path d="M320.294 41.75L315.25 36.5V35H317.875C318.537 35 319.109 34.7844 319.591 34.3531C320.072 33.9219 320.363 33.3875 320.463 32.75H314.5V31.25H320.238C320.025 30.8125 319.709 30.4531 319.291 30.1719C318.872 29.8906 318.4 29.75 317.875 29.75H314.5V28.25H323.5V29.75H321.062C321.238 29.9625 321.394 30.1937 321.531 30.4437C321.669 30.6937 321.775 30.9625 321.85 31.25H323.5V32.75H321.981C321.881 33.8125 321.444 34.7031 320.669 35.4219C319.894 36.1406 318.963 36.5 317.875 36.5H317.331L322.375 41.75H320.294Z" fill="white"/>
</g>
<path d="M333.714 42.179C332.862 42.179 332.099 42.0192 331.426 41.6996C330.753 41.3757 330.218 40.9325 329.822 40.37C329.43 39.8075 329.221 39.1641 329.195 38.4396H331.496C331.539 38.9766 331.771 39.4155 332.193 39.7564C332.615 40.093 333.122 40.2614 333.714 40.2614C334.179 40.2614 334.592 40.1548 334.955 39.9418C335.317 39.7287 335.602 39.4325 335.811 39.0533C336.02 38.674 336.122 38.2415 336.118 37.7557C336.122 37.2614 336.018 36.8224 335.805 36.4389C335.592 36.0554 335.3 35.755 334.929 35.5376C334.558 35.3161 334.132 35.2053 333.651 35.2053C333.259 35.201 332.873 35.2734 332.494 35.4226C332.114 35.5717 331.814 35.7678 331.592 36.0107L329.451 35.6591L330.135 28.9091H337.729V30.8906H332.097L331.72 34.3615H331.797C332.04 34.076 332.383 33.8395 332.826 33.652C333.269 33.4602 333.755 33.3643 334.283 33.3643C335.076 33.3643 335.783 33.5518 336.406 33.9268C337.028 34.2976 337.518 34.8089 337.876 35.4609C338.234 36.1129 338.413 36.8587 338.413 37.6982C338.413 38.5632 338.212 39.3345 337.812 40.0121C337.415 40.6854 336.864 41.2159 336.156 41.6037C335.453 41.9872 334.639 42.179 333.714 42.179ZM342.857 40.2102L342.774 40.9134C342.714 41.4503 342.607 41.9957 342.454 42.5497C342.305 43.108 342.147 43.6214 341.981 44.0902C341.815 44.5589 341.681 44.9276 341.578 45.196H340.019C340.078 44.9361 340.159 44.5824 340.262 44.1349C340.368 43.6875 340.47 43.1847 340.568 42.6264C340.666 42.0682 340.732 41.5014 340.767 40.9261L340.811 40.2102H342.857ZM349.775 28.7301C350.401 28.7344 351.01 28.8452 351.603 29.0625C352.199 29.2756 352.736 29.625 353.213 30.1108C353.691 30.5923 354.07 31.2379 354.351 32.0476C354.632 32.8572 354.773 33.8587 354.773 35.0518C354.777 36.1768 354.658 37.1825 354.415 38.0689C354.176 38.951 353.833 39.6967 353.386 40.3061C352.939 40.9155 352.4 41.38 351.769 41.6996C351.138 42.0192 350.429 42.179 349.64 42.179C348.814 42.179 348.081 42.017 347.441 41.6932C346.806 41.3693 346.293 40.9261 345.901 40.3636C345.509 39.8011 345.268 39.1577 345.179 38.4332H347.512C347.631 38.9531 347.874 39.3665 348.24 39.6733C348.611 39.9759 349.078 40.1271 349.64 40.1271C350.548 40.1271 351.247 39.733 351.737 38.9446C352.227 38.1562 352.472 37.0611 352.472 35.6591H352.382C352.174 36.0341 351.903 36.358 351.571 36.6307C351.238 36.8991 350.861 37.1058 350.439 37.2507C350.022 37.3956 349.578 37.468 349.11 37.468C348.343 37.468 347.652 37.2848 347.039 36.9183C346.429 36.5518 345.946 36.049 345.588 35.4098C345.234 34.7706 345.055 34.0398 345.051 33.2173C345.051 32.3651 345.247 31.6001 345.639 30.9226C346.035 30.2408 346.587 29.7038 347.294 29.3118C348.002 28.9155 348.828 28.7216 349.775 28.7301ZM349.781 30.6477C349.321 30.6477 348.905 30.7607 348.534 30.9865C348.168 31.2081 347.878 31.5107 347.665 31.8942C347.456 32.2734 347.352 32.6974 347.352 33.1662C347.356 33.6307 347.461 34.0526 347.665 34.4318C347.874 34.8111 348.157 35.1115 348.515 35.3331C348.877 35.5547 349.291 35.6655 349.755 35.6655C350.1 35.6655 350.422 35.5994 350.721 35.4673C351.019 35.3352 351.279 35.152 351.5 34.9176C351.726 34.679 351.901 34.4084 352.025 34.1058C352.152 33.8033 352.214 33.4837 352.21 33.147C352.21 32.6996 352.103 32.2862 351.89 31.907C351.681 31.5277 351.394 31.223 351.027 30.9929C350.665 30.7628 350.25 30.6477 349.781 30.6477ZM361.446 28.7301C362.073 28.7344 362.682 28.8452 363.275 29.0625C363.871 29.2756 364.408 29.625 364.885 30.1108C365.363 30.5923 365.742 31.2379 366.023 32.0476C366.304 32.8572 366.445 33.8587 366.445 35.0518C366.449 36.1768 366.33 37.1825 366.087 38.0689C365.848 38.951 365.505 39.6967 365.058 40.3061C364.61 40.9155 364.071 41.38 363.441 41.6996C362.81 42.0192 362.1 42.179 361.312 42.179C360.485 42.179 359.752 42.017 359.113 41.6932C358.478 41.3693 357.965 40.9261 357.573 40.3636C357.181 39.8011 356.94 39.1577 356.85 38.4332H359.184C359.303 38.9531 359.546 39.3665 359.912 39.6733C360.283 39.9759 360.75 40.1271 361.312 40.1271C362.22 40.1271 362.919 39.733 363.409 38.9446C363.899 38.1562 364.144 37.0611 364.144 35.6591H364.054C363.846 36.0341 363.575 36.358 363.243 36.6307C362.91 36.8991 362.533 37.1058 362.111 37.2507C361.694 37.3956 361.25 37.468 360.782 37.468C360.015 37.468 359.324 37.2848 358.711 36.9183C358.101 36.5518 357.618 36.049 357.26 35.4098C356.906 34.7706 356.727 34.0398 356.723 33.2173C356.723 32.3651 356.919 31.6001 357.311 30.9226C357.707 30.2408 358.259 29.7038 358.966 29.3118C359.674 28.9155 360.5 28.7216 361.446 28.7301ZM361.453 30.6477C360.993 30.6477 360.577 30.7607 360.206 30.9865C359.84 31.2081 359.55 31.5107 359.337 31.8942C359.128 32.2734 359.024 32.6974 359.024 33.1662C359.028 33.6307 359.132 34.0526 359.337 34.4318C359.546 34.8111 359.829 35.1115 360.187 35.3331C360.549 35.5547 360.963 35.6655 361.427 35.6655C361.772 35.6655 362.094 35.5994 362.392 35.4673C362.691 35.3352 362.951 35.152 363.172 34.9176C363.398 34.679 363.573 34.4084 363.696 34.1058C363.824 33.8033 363.886 33.4837 363.882 33.147C363.882 32.6996 363.775 32.2862 363.562 31.907C363.353 31.5277 363.066 31.223 362.699 30.9929C362.337 30.7628 361.922 30.6477 361.453 30.6477ZM373.118 28.7301C373.745 28.7344 374.354 28.8452 374.946 29.0625C375.543 29.2756 376.08 29.625 376.557 30.1108C377.034 30.5923 377.414 31.2379 377.695 32.0476C377.976 32.8572 378.117 33.8587 378.117 35.0518C378.121 36.1768 378.002 37.1825 377.759 38.0689C377.52 38.951 377.177 39.6967 376.73 40.3061C376.282 40.9155 375.743 41.38 375.113 41.6996C374.482 42.0192 373.772 42.179 372.984 42.179C372.157 42.179 371.424 42.017 370.785 41.6932C370.15 41.3693 369.637 40.9261 369.245 40.3636C368.853 39.8011 368.612 39.1577 368.522 38.4332H370.855C370.975 38.9531 371.218 39.3665 371.584 39.6733C371.955 39.9759 372.422 40.1271 372.984 40.1271C373.892 40.1271 374.591 39.733 375.081 38.9446C375.571 38.1562 375.816 37.0611 375.816 35.6591H375.726C375.517 36.0341 375.247 36.358 374.914 36.6307C374.582 36.8991 374.205 37.1058 373.783 37.2507C373.365 37.3956 372.922 37.468 372.453 37.468C371.686 37.468 370.996 37.2848 370.382 36.9183C369.773 36.5518 369.289 36.049 368.931 35.4098C368.578 34.7706 368.399 34.0398 368.395 33.2173C368.395 32.3651 368.591 31.6001 368.983 30.9226C369.379 30.2408 369.931 29.7038 370.638 29.3118C371.346 28.9155 372.172 28.7216 373.118 28.7301ZM373.125 30.6477C372.664 30.6477 372.249 30.7607 371.878 30.9865C371.512 31.2081 371.222 31.5107 371.009 31.8942C370.8 32.2734 370.696 32.6974 370.696 33.1662C370.7 33.6307 370.804 34.0526 371.009 34.4318C371.218 34.8111 371.501 35.1115 371.859 35.3331C372.221 35.5547 372.635 35.6655 373.099 35.6655C373.444 35.6655 373.766 35.5994 374.064 35.4673C374.363 35.3352 374.623 35.152 374.844 34.9176C375.07 34.679 375.245 34.4084 375.368 34.1058C375.496 33.8033 375.558 33.4837 375.554 33.147C375.554 32.6996 375.447 32.2862 375.234 31.907C375.025 31.5277 374.738 31.223 374.371 30.9929C374.009 30.7628 373.593 30.6477 373.125 30.6477Z" fill="white"/>
<rect x="313" y="35" width="68" height="1" rx="0.5" fill="white"/>
<mask id="mask1_1_128" style="mask-type:alpha" maskUnits="userSpaceOnUse" x="386" y="25" width="20" height="20">
<rect x="386" y="25" width="20" height="20" fill="#D9D9D9"/>
</mask>
<g mask="url(#mask1_1_128)">
<path d="M397.438 42.5L391.833 36.6667V35H394.75C395.486 35 396.122 34.7604 396.656 34.2812C397.191 33.8021 397.514 33.2083 397.625 32.5H391V30.8333H397.375C397.139 30.3472 396.788 29.9479 396.323 29.6354C395.858 29.3229 395.333 29.1667 394.75 29.1667H391V27.5H401V29.1667H398.292C398.486 29.4028 398.66 29.6597 398.812 29.9375C398.965 30.2153 399.083 30.5139 399.167 30.8333H401V32.5H399.312C399.201 33.6806 398.715 34.6701 397.854 35.4688C396.993 36.2674 395.958 36.6667 394.75 36.6667H394.146L399.75 42.5H397.438Z" fill="white"/>
</g>
<path d="M410.342 27.2557C411.038 27.2604 411.715 27.3835 412.374 27.625C413.036 27.8617 413.633 28.25 414.163 28.7898C414.694 29.3248 415.115 30.0421 415.428 30.9418C415.74 31.8414 415.896 32.9541 415.896 34.2798C415.901 35.5298 415.768 36.6473 415.499 37.6321C415.233 38.6122 414.852 39.4408 414.355 40.1179C413.858 40.795 413.259 41.3111 412.558 41.6662C411.857 42.0213 411.069 42.1989 410.193 42.1989C409.275 42.1989 408.46 42.0189 407.75 41.6591C407.045 41.2992 406.474 40.8068 406.038 40.1818C405.603 39.5568 405.335 38.8419 405.236 38.0369H407.828C407.961 38.6146 408.231 39.0739 408.638 39.4148C409.05 39.7509 409.568 39.919 410.193 39.919C411.202 39.919 411.978 39.4811 412.523 38.6051C413.067 37.7292 413.339 36.5123 413.339 34.9545H413.24C413.008 35.3712 412.707 35.7311 412.338 36.0341C411.969 36.3324 411.55 36.562 411.081 36.723C410.617 36.884 410.125 36.9645 409.604 36.9645C408.751 36.9645 407.984 36.7609 407.303 36.3537C406.625 35.9465 406.088 35.3878 405.69 34.6776C405.297 33.9673 405.098 33.1553 405.094 32.2415C405.094 31.2945 405.312 30.4446 405.747 29.6918C406.188 28.9342 406.801 28.3376 407.587 27.902C408.373 27.4616 409.291 27.2462 410.342 27.2557ZM410.349 29.3864C409.838 29.3864 409.376 29.5118 408.964 29.7628C408.557 30.009 408.235 30.3452 407.999 30.7713C407.767 31.1927 407.651 31.6638 407.651 32.1847C407.655 32.7008 407.771 33.1695 407.999 33.5909C408.231 34.0123 408.545 34.3461 408.943 34.5923C409.346 34.8385 409.805 34.9616 410.321 34.9616C410.705 34.9616 411.062 34.8883 411.393 34.7415C411.725 34.5947 412.014 34.3911 412.26 34.1307C412.511 33.8655 412.705 33.5649 412.842 33.2287C412.984 32.8925 413.053 32.5374 413.048 32.1634C413.048 31.6662 412.93 31.2069 412.693 30.7855C412.461 30.3641 412.142 30.0256 411.734 29.7699C411.332 29.5142 410.87 29.3864 410.349 29.3864ZM423.311 27.2557C424.007 27.2604 424.684 27.3835 425.342 27.625C426.005 27.8617 426.602 28.25 427.132 28.7898C427.662 29.3248 428.084 30.0421 428.396 30.9418C428.709 31.8414 428.865 32.9541 428.865 34.2798C428.87 35.5298 428.737 36.6473 428.467 37.6321C428.202 38.6122 427.821 39.4408 427.324 40.1179C426.827 40.795 426.228 41.3111 425.527 41.6662C424.826 42.0213 424.038 42.1989 423.162 42.1989C422.243 42.1989 421.429 42.0189 420.719 41.6591C420.013 41.2992 419.443 40.8068 419.007 40.1818C418.571 39.5568 418.304 38.8419 418.205 38.0369H420.797C420.929 38.6146 421.199 39.0739 421.607 39.4148C422.018 39.7509 422.537 39.919 423.162 39.919C424.17 39.919 424.947 39.4811 425.491 38.6051C426.036 37.7292 426.308 36.5123 426.308 34.9545H426.209C425.977 35.3712 425.676 35.7311 425.307 36.0341C424.938 36.3324 424.518 36.562 424.05 36.723C423.586 36.884 423.093 36.9645 422.572 36.9645C421.72 36.9645 420.953 36.7609 420.271 36.3537C419.594 35.9465 419.057 35.3878 418.659 34.6776C418.266 33.9673 418.067 33.1553 418.062 32.2415C418.062 31.2945 418.28 30.4446 418.716 29.6918C419.156 28.9342 419.769 28.3376 420.555 27.902C421.341 27.4616 422.26 27.2462 423.311 27.2557ZM423.318 29.3864C422.807 29.3864 422.345 29.5118 421.933 29.7628C421.526 30.009 421.204 30.3452 420.967 30.7713C420.735 31.1927 420.619 31.6638 420.619 32.1847C420.624 32.7008 420.74 33.1695 420.967 33.5909C421.199 34.0123 421.514 34.3461 421.912 34.5923C422.314 34.8385 422.774 34.9616 423.29 34.9616C423.673 34.9616 424.031 34.8883 424.362 34.7415C424.694 34.5947 424.982 34.3911 425.229 34.1307C425.48 33.8655 425.674 33.5649 425.811 33.2287C425.953 32.8925 426.022 32.5374 426.017 32.1634C426.017 31.6662 425.899 31.2069 425.662 30.7855C425.43 30.3641 425.11 30.0256 424.703 29.7699C424.301 29.5142 423.839 29.3864 423.318 29.3864ZM436.28 27.2557C436.976 27.2604 437.653 27.3835 438.311 27.625C438.974 27.8617 439.571 28.25 440.101 28.7898C440.631 29.3248 441.053 30.0421 441.365 30.9418C441.678 31.8414 441.834 32.9541 441.834 34.2798C441.839 35.5298 441.706 36.6473 441.436 37.6321C441.171 38.6122 440.79 39.4408 440.293 40.1179C439.795 40.795 439.196 41.3111 438.496 41.6662C437.795 42.0213 437.007 42.1989 436.131 42.1989C435.212 42.1989 434.398 42.0189 433.688 41.6591C432.982 41.2992 432.411 40.8068 431.976 40.1818C431.54 39.5568 431.273 38.8419 431.173 38.0369H433.766C433.898 38.6146 434.168 39.0739 434.575 39.4148C434.987 39.7509 435.506 39.919 436.131 39.919C437.139 39.919 437.916 39.4811 438.46 38.6051C439.005 37.7292 439.277 36.5123 439.277 34.9545H439.178C438.946 35.3712 438.645 35.7311 438.276 36.0341C437.906 36.3324 437.487 36.562 437.018 36.723C436.554 36.884 436.062 36.9645 435.541 36.9645C434.689 36.9645 433.922 36.7609 433.24 36.3537C432.563 35.9465 432.026 35.3878 431.628 34.6776C431.235 33.9673 431.036 33.1553 431.031 32.2415C431.031 31.2945 431.249 30.4446 431.685 29.6918C432.125 28.9342 432.738 28.3376 433.524 27.902C434.31 27.4616 435.229 27.2462 436.28 27.2557ZM436.287 29.3864C435.776 29.3864 435.314 29.5118 434.902 29.7628C434.495 30.009 434.173 30.3452 433.936 30.7713C433.704 31.1927 433.588 31.6638 433.588 32.1847C433.593 32.7008 433.709 33.1695 433.936 33.5909C434.168 34.0123 434.483 34.3461 434.881 34.5923C435.283 34.8385 435.742 34.9616 436.259 34.9616C436.642 34.9616 437 34.8883 437.331 34.7415C437.662 34.5947 437.951 34.3911 438.197 34.1307C438.448 33.8655 438.643 33.5649 438.78 33.2287C438.922 32.8925 438.991 32.5374 438.986 32.1634C438.986 31.6662 438.867 31.2069 438.631 30.7855C438.399 30.3641 438.079 30.0256 437.672 29.7699C437.269 29.5142 436.808 29.3864 436.287 29.3864Z" fill="white"/>
<path d="M487.19 45L494.614 30.3068V30.1875H485.997V27.5455H497.886V30.2472L490.472 45H487.19ZM506.714 45.3324C505.31 45.3324 504.106 44.9773 503.1 44.267C502.1 43.5511 501.33 42.5199 500.79 41.1733C500.256 39.821 499.989 38.1932 499.989 36.2898C499.995 34.3864 500.265 32.767 500.799 31.4318C501.339 30.0909 502.109 29.0682 503.109 28.3636C504.114 27.6591 505.316 27.3068 506.714 27.3068C508.112 27.3068 509.313 27.6591 510.319 28.3636C511.325 29.0682 512.094 30.0909 512.629 31.4318C513.168 32.7727 513.438 34.392 513.438 36.2898C513.438 38.1989 513.168 39.8295 512.629 41.1818C512.094 42.5284 511.325 43.5568 510.319 44.267C509.319 44.9773 508.117 45.3324 506.714 45.3324ZM506.714 42.6648C507.805 42.6648 508.665 42.1278 509.296 41.054C509.933 39.9744 510.251 38.3864 510.251 36.2898C510.251 34.9034 510.106 33.7386 509.816 32.7955C509.526 31.8523 509.117 31.142 508.589 30.6648C508.06 30.1818 507.435 29.9403 506.714 29.9403C505.629 29.9403 504.771 30.4801 504.14 31.5597C503.509 32.6335 503.191 34.2102 503.185 36.2898C503.18 37.6818 503.319 38.8523 503.603 39.8011C503.893 40.75 504.302 41.4659 504.83 41.9489C505.359 42.4261 505.987 42.6648 506.714 42.6648ZM525.602 41.7273V40.8068C525.602 40.1307 525.744 39.5085 526.028 38.9403C526.318 38.3722 526.739 37.9148 527.29 37.5682C527.841 37.2216 528.509 37.0483 529.293 37.0483C530.099 37.0483 530.776 37.2216 531.321 37.5682C531.866 37.9091 532.278 38.3636 532.557 38.9318C532.841 39.5 532.983 40.125 532.983 40.8068V41.7273C532.983 42.4034 532.841 43.0256 532.557 43.5938C532.273 44.1619 531.855 44.6193 531.304 44.9659C530.759 45.3125 530.088 45.4858 529.293 45.4858C528.497 45.4858 527.824 45.3125 527.273 44.9659C526.722 44.6193 526.304 44.1619 526.02 43.5938C525.741 43.0256 525.602 42.4034 525.602 41.7273ZM527.827 40.8068V41.7273C527.827 42.1761 527.935 42.5881 528.151 42.9631C528.366 43.3381 528.747 43.5256 529.293 43.5256C529.844 43.5256 530.222 43.3409 530.426 42.9716C530.636 42.5966 530.741 42.1818 530.741 41.7273V40.8068C530.741 40.3523 530.642 39.9375 530.443 39.5625C530.244 39.1818 529.861 38.9915 529.293 38.9915C528.759 38.9915 528.381 39.1818 528.159 39.5625C527.938 39.9375 527.827 40.3523 527.827 40.8068ZM516.73 31.7386V30.8182C516.73 30.1364 516.875 29.5114 517.165 28.9432C517.455 28.375 517.875 27.9205 518.426 27.5795C518.977 27.233 519.645 27.0597 520.429 27.0597C521.23 27.0597 521.903 27.233 522.449 27.5795C523 27.9205 523.415 28.375 523.693 28.9432C523.972 29.5114 524.111 30.1364 524.111 30.8182V31.7386C524.111 32.4205 523.969 33.0455 523.685 33.6136C523.406 34.1761 522.991 34.6278 522.44 34.9688C521.889 35.3097 521.219 35.4801 520.429 35.4801C519.628 35.4801 518.952 35.3097 518.401 34.9688C517.855 34.6278 517.44 34.1733 517.156 33.6051C516.872 33.0369 516.73 32.4148 516.73 31.7386ZM518.972 30.8182V31.7386C518.972 32.1932 519.077 32.608 519.287 32.983C519.503 33.3523 519.884 33.5369 520.429 33.5369C520.974 33.5369 521.349 33.3523 521.554 32.983C521.764 32.608 521.869 32.1932 521.869 31.7386V30.8182C521.869 30.3636 521.77 29.9489 521.571 29.5739C521.372 29.1932 520.991 29.0028 520.429 29.0028C519.889 29.0028 519.511 29.1932 519.295 29.5739C519.08 29.9545 518.972 30.3693 518.972 30.8182ZM517.702 45L529.702 27.5455H531.832L519.832 45H517.702ZM558.24 36.2727C558.24 38.1534 557.888 39.7642 557.183 41.1051C556.484 42.4403 555.53 43.4631 554.32 44.1733C553.115 44.8835 551.749 45.2386 550.22 45.2386C548.692 45.2386 547.322 44.8835 546.112 44.1733C544.908 43.4574 543.953 42.4318 543.249 41.0966C542.55 39.7557 542.2 38.1477 542.2 36.2727C542.2 34.392 542.55 32.7841 543.249 31.4489C543.953 30.108 544.908 29.0824 546.112 28.3722C547.322 27.6619 548.692 27.3068 550.22 27.3068C551.749 27.3068 553.115 27.6619 554.32 28.3722C555.53 29.0824 556.484 30.108 557.183 31.4489C557.888 32.7841 558.24 34.392 558.24 36.2727ZM555.061 36.2727C555.061 34.9489 554.854 33.8324 554.439 32.9233C554.03 32.0085 553.462 31.3182 552.734 30.8523C552.007 30.3807 551.169 30.1449 550.22 30.1449C549.271 30.1449 548.433 30.3807 547.706 30.8523C546.979 31.3182 546.408 32.0085 545.993 32.9233C545.584 33.8324 545.379 34.9489 545.379 36.2727C545.379 37.5966 545.584 38.7159 545.993 39.6307C546.408 40.5398 546.979 41.2301 547.706 41.7017C548.433 42.1676 549.271 42.4006 550.22 42.4006C551.169 42.4006 552.007 42.1676 552.734 41.7017C553.462 41.2301 554.03 40.5398 554.439 39.6307C554.854 38.7159 555.061 37.5966 555.061 36.2727ZM561.229 45V27.5455H572.411V30.196H564.391V34.9347H571.644V37.5852H564.391V45H561.229ZM575.292 45V27.5455H586.474V30.196H578.454V34.9347H585.707V37.5852H578.454V45H575.292Z" fill="white"/>
</svg>
